<svg width="4834" height="1185" viewBox="0 0 4834 1185" fill="none" xmlns="http://www.w3.org/2000/svg">
<path fill-rule="evenodd" clip-rule="evenodd" d="M2295.66 0C2426.65 0.00534933 2532.84 107.044 2532.84 239.077V528.908C2532.84 660.942 2426.65 768.007 2295.66 768.013H1895.75C1882.04 768.014 1870.9 779.191 1870.9 793.003C1870.9 806.821 1882.04 818.048 1895.75 818.049H2323.24C2423.76 818.053 2505.25 900.174 2505.26 1001.5C2505.26 1102.83 2423.77 1185 2323.24 1185H1578.56C1447.57 1184.99 1341.39 1077.93 1341.39 945.895V468.46C1341.39 465.036 1342.98 461.813 1345.68 459.709C1351.01 455.552 1360.2 448.297 1366.62 442.722C1384.38 427.302 1401.58 409.713 1409.22 400.159C1447.48 352.298 1465.25 295.806 1465.58 239.821C1465.82 198.071 1456.36 156.602 1438.45 119.205C1433.05 107.928 1421.78 90.349 1414.95 80.007C1411.8 75.2332 1412.72 68.8304 1417.16 65.2182C1431.49 53.5484 1455.13 34.5527 1465.58 28.835C1499.17 10.4485 1537.65 0.00189421 1578.56 0H2295.66ZM1895.75 351.025C1882.04 351.026 1870.9 362.201 1870.9 376.016C1870.9 389.833 1882.04 401.061 1895.75 401.062H2075.01C2088.72 401.061 2099.84 389.833 2099.84 376.016C2099.83 362.201 2088.72 351.026 2075.01 351.025H1895.75Z" fill="white"/>
<path fill-rule="evenodd" clip-rule="evenodd" d="M3515.24 0C3646.23 0.0048803 3752.42 107.043 3752.42 239.077V528.908C3752.42 660.942 3646.23 768.008 3515.24 768.013H3115.33C3101.62 768.014 3090.51 779.191 3090.5 793.003C3090.5 806.821 3101.62 818.048 3115.33 818.049H3542.82C3643.34 818.053 3724.83 900.174 3724.84 1001.5C3724.84 1102.83 3643.35 1185 3542.82 1185H2798.14C2667.16 1184.99 2560.97 1077.93 2560.97 945.895V239.077C2560.97 107.045 2667.16 0.00656655 2798.14 0H3515.24ZM3115.33 351.025C3101.62 351.026 3090.51 362.201 3090.5 376.016C3090.5 389.833 3101.62 401.061 3115.33 401.062H3294.59C3308.3 401.061 3319.42 389.833 3319.42 376.016C3319.41 362.201 3308.3 351.026 3294.59 351.025H3115.33Z" fill="white"/>
<path d="M4017.64 0C4148.64 0 4254.82 107.04 4254.82 239.077V320.414C4254.82 349.585 4278.31 373.26 4307.25 373.261H4651.98C4752.51 373.261 4834 455.381 4834 556.709C4834 658.04 4752.51 740.184 4651.98 740.184H4279.67C4265.96 740.185 4254.82 751.39 4254.82 765.202C4254.82 779.02 4265.96 790.247 4279.67 790.248H4638.2C4746.34 790.253 4834 878.606 4834 987.61C4834 1096.61 4746.34 1184.97 4638.2 1184.97H4017.64C3886.65 1184.97 3780.46 1077.93 3780.46 945.895V239.077C3780.46 107.043 3886.65 0.00369437 4017.64 0Z" fill="white"/>
<path d="M4380.51 86.8906V185.524C4380.51 207.72 4400.28 225.714 4424.66 225.714C4449.04 225.714 4468.8 207.719 4468.8 185.524V86.8906C4468.8 77.9439 4476.77 70.6911 4486.59 70.6907H4495.53C4516.97 70.6905 4534.35 54.8645 4534.35 35.3441C4534.35 15.8241 4516.97 0.000255429 4495.53 0H4353.78C4332.34 0.000653381 4314.96 15.8244 4314.96 35.3441C4314.96 54.8643 4332.34 70.6901 4353.78 70.6907H4362.72C4372.55 70.6907 4380.51 77.9437 4380.51 86.8906Z" fill="white"/>
<path fill-rule="evenodd" clip-rule="evenodd" d="M4778.83 225.714C4803.09 225.714 4822.76 207.807 4822.76 185.718V53.7768C4822.76 24.0772 4796.31 0.000482293 4763.69 0C4739.73 0 4718.15 13.1795 4709.05 33.3617L4682.2 92.931L4655.35 33.3617C4646.25 13.1795 4624.67 0 4600.71 0C4568.08 0.000352862 4541.64 24.0771 4541.64 53.7768V185.718C4541.64 207.807 4561.31 225.714 4585.57 225.714C4609.83 225.714 4629.5 207.807 4629.5 185.718V165.497L4644.46 200.62C4650.5 214.812 4665.5 224.164 4682.22 224.164C4698.9 224.163 4713.88 214.85 4719.95 200.7L4734.9 165.836V185.718C4734.9 207.807 4754.57 225.714 4778.83 225.714Z" fill="white"/>
<path d="M1349.03 420.734C1521.44 281.857 1424.75 0.00931792 1204.71 0H964.088C835.809 0 731.803 105.608 731.803 235.896V949.104C731.803 1079.39 835.809 1185 964.088 1185H1003.47C1209.28 1185 1306.36 926.959 1152.99 787.571C1089.31 729.708 1092.3 627.539 1159.24 573.614L1349.03 420.734Z" fill="white"/>
<path fill-rule="evenodd" clip-rule="evenodd" d="M705.599 235.896C705.599 105.61 601.617 0.00225757 473.341 0H433.936C228.129 0.00937333 131.066 258.044 284.443 397.429C348.114 455.29 345.126 557.46 278.192 611.386L88.3974 764.265C-84.0106 903.144 12.674 1185 232.721 1185H473.341C601.617 1185 705.599 1079.39 705.599 949.104V235.896Z" fill="white"/>
</svg>
