<svg width="377" height="299" viewBox="0 0 377 299" fill="none" xmlns="http://www.w3.org/2000/svg">
<path fill-rule="evenodd" clip-rule="evenodd" d="M194.724 240.619L194.706 239.083V59.424C194.706 27.1168 220.722 0.831927 253.122 0.018218L254.671 0H316.787C373.593 0.00234606 398.554 71.0013 354.046 105.985L305.05 144.496C287.769 158.08 286.999 183.818 303.437 198.394C343.03 233.507 317.968 298.507 264.836 298.507H254.671L253.122 298.489C221.236 297.689 195.533 272.22 194.724 240.619Z" fill="black"/>
<path fill-rule="evenodd" clip-rule="evenodd" d="M122.197 0C155.312 0.00126072 182.155 26.6047 182.155 59.424V239.083C182.155 271.39 156.144 297.675 123.744 298.489L122.197 298.507H60.079L58.7525 298.494C3.32536 297.408 -20.9564 228.335 21.7902 193.35L22.8201 192.522L71.8164 154.012C89.0961 140.427 89.8688 114.689 73.4315 100.113C34.1455 65.276 58.505 1.01763 110.783 0.0130125L112.025 0H122.197Z" fill="black"/>
<path fill-rule="evenodd" clip-rule="evenodd" d="M194.724 240.619L194.706 239.083V59.424C194.706 27.1168 220.722 0.831927 253.122 0.018218L254.671 0H316.787C373.593 0.00234606 398.554 71.0013 354.046 105.985L305.05 144.496C287.769 158.08 286.999 183.818 303.437 198.394C343.03 233.507 317.968 298.507 264.836 298.507H254.671L253.122 298.489C221.236 297.689 195.533 272.22 194.724 240.619ZM122.197 0C155.312 0.00126072 182.155 26.6047 182.155 59.424V239.083C182.155 271.39 156.144 297.675 123.744 298.489L122.197 298.507H60.079L58.7525 298.494C3.32536 297.408 -20.9564 228.335 21.7902 193.35L22.8201 192.522L71.8164 154.012C89.0961 140.427 89.8688 114.689 73.4315 100.113C34.1455 65.276 58.505 1.01763 110.783 0.0130125L112.025 0H122.197Z" fill="black"/>
</svg>
